PathFileType	4	(X/Y/Z)	TVC_4_BWA_6_walk_RCNL2025.trc
DataRate	CameraRate	NumFrames	NumMarkers	Units	OrigDataRate	OrigDataStartFrame	OrigNumFrames
100	100	10	27	mm	100	263	420
Frame#	Time	R_Shoulder			L_Shoulder			C7			J_Notch			R_Elbow			L_Elbow			R_Wrist			L_Wrist			R_Asis			L_Asis			R_Psis			L_Psis			Sacral			Thoracic			Sternum			R_Thigh_Lateral			R_Knee_Lateral			R_Shank_Lateral			R_Ankle_Lateral			R_Heel			R_Toe			L_Thigh_Lateral			L_Knee_Lateral			L_Shank_Lateral			L_Ankle_Lateral			L_Heel			L_Toe		
		X1	Y1	Z1	X2	Y2	Z2	X3	Y3	Z3	X4	Y4	Z4	X5	Y5	Z5	X6	Y6	Z6	X7	Y7	Z7	X8	Y8	Z8	X9	Y9	Z9	X10	Y10	Z10	X11	Y11	Z11	X12	Y12	Z12	X13	Y13	Z13	X14	Y14	Z14	X15	Y15	Z15	X16	Y16	Z16	X17	Y17	Z17	X18	Y18	Z18	X19	Y19	Z19	X20	Y20	Z20	X21	Y21	Z21	X22	Y22	Z22	X23	Y23	Z23	X24	Y24	Z24	X25	Y25	Z25	X26	Y26	Z26	X27	Y27	Z27
263	2.62000000	-132.732101	1293.341309	349.920959	-104.447456	1306.636597	-30.511454	-174.612076	1366.718628	168.624008	-33.003410	1243.828369	154.208679	-247.691040	1002.620605	410.910065	-145.652771	994.451538	-132.230057	-227.766808	772.319824	418.229538	1.408196	838.660614	-86.972126	-109.268921	853.715942	330.006104	-170.213867	847.006958	-19.461800	-271.802734	889.129944	230.584793	-282.636414	888.802917	139.601639	-277.219574	888.966431	185.093216	-263.142670	1121.133057	162.250229	-2.702462	1052.763916	150.034988	-25.533485	518.952576	353.602509	-9.164807	434.193695	300.585815	28.531954	266.921936	364.502930	82.333191	60.363056	271.947906	35.504684	42.627567	226.913818	209.645828	75.910423	244.265640	-205.533554	492.457733	-23.691357	-233.436737	413.370605	27.597204	-280.865845	299.707489	-17.361324	-383.009827	65.761353	62.732689	-428.014526	64.606895	110.393478	-250.495926	40.253792	75.429970
264	2.63000000	-122.336281	1292.518066	351.447876	-94.526215	1305.829834	-29.110970	-164.488113	1366.003174	170.196472	-22.688238	1243.282227	155.608414	-237.625900	1002.099121	412.661682	-136.123093	993.441589	-130.287430	-219.243462	771.781982	420.616745	11.175713	837.966675	-84.397427	-97.800529	853.158630	331.235657	-159.406036	846.032104	-17.963867	-260.802155	888.725464	232.443161	-271.773499	888.201355	141.427155	-266.287827	888.463409	186.935158	-252.477097	1120.312500	163.915634	8.100127	1052.140869	151.341080	-14.479502	518.528564	353.179047	1.669069	433.683105	299.984711	38.459873	265.822754	362.695282	86.761353	59.187588	270.546906	38.675953	42.840054	226.311905	214.056152	70.545593	240.843735	-197.020279	492.127441	-22.627703	-225.968704	413.380493	28.464399	-275.621246	300.829010	-17.026775	-382.077637	68.333313	62.293007	-427.127136	68.018433	109.891777	-250.292145	40.151653	75.350624
265	2.64000000	-111.820236	1291.883179	353.067932	-84.604362	1305.220947	-27.642876	-154.256516	1365.582642	171.880096	-12.336034	1242.981934	157.059113	-227.178986	1001.645569	414.496002	-126.922379	992.584229	-128.093796	-210.167938	771.348785	423.024307	20.351324	837.064850	-81.849556	-86.455399	853.096863	332.547058	-148.400543	845.225281	-16.418623	-249.880707	888.673950	234.228195	-260.936096	887.882996	143.151154	-255.408401	888.278473	188.689674	-241.810089	1119.829224	165.679855	18.992516	1051.821655	152.776962	-3.235427	518.609619	352.619293	12.856992	433.749725	299.342499	48.474823	265.313995	361.042664	90.118523	58.241398	269.529938	40.861309	43.395130	225.989441	217.462891	65.046234	238.095978	-187.823288	491.938232	-21.457006	-217.647141	413.530853	29.377388	-269.658905	302.247589	-16.729813	-380.793274	71.465981	61.748592	-425.863281	72.152145	109.281654	-250.025955	40.020336	75.277077
266	2.65000000	-101.189095	1291.504150	354.758850	-74.640190	1304.868530	-26.121349	-143.892700	1365.505859	173.645096	-1.937740	1242.965454	158.553894	-216.343567	1001.326965	416.393524	-118.046379	991.944641	-125.651100	-200.515472	771.087006	425.445358	28.905804	835.988220	-79.341640	-75.287186	853.592834	333.927887	-137.238358	844.627930	-14.835000	-239.041092	888.977173	235.915543	-250.145630	887.859070	144.754379	-244.593361	888.418121	190.334961	-231.155991	1119.725830	167.504532	29.945774	1051.873535	154.335236	8.331767	519.269348	352.028168	24.355146	434.350372	298.743958	58.667778	265.435516	359.726501	92.697983	57.532974	268.877533	42.413319	44.179020	225.913467	220.127350	59.870167	236.048920	-177.863159	491.896637	-20.195322	-208.344131	413.829468	30.309372	-262.866943	303.992462	-16.497099	-379.072296	75.223068	61.111954	-424.090088	77.121628	108.574783	-249.681107	39.863579	75.214333
267	2.66000000	-90.460434	1291.441406	356.494263	-64.603485	1304.815063	-24.558056	-133.393982	1365.791382	175.458298	8.510281	1243.249146	160.088196	-205.122040	1001.206665	418.339905	-109.479935	991.580994	-122.972176	-190.260460	771.053162	427.869797	36.815681	834.772614	-76.884571	-64.330612	854.636169	335.372131	-125.969841	844.283264	-13.217350	-228.271835	889.600037	237.498611	-239.414917	888.116760	146.241638	-233.843376	888.858398	191.870125	-220.524155	1120.005859	169.350220	40.919331	1052.330811	156.007156	20.300585	520.506165	351.495270	36.039783	435.347900	298.261505	68.985252	266.075073	358.877686	94.695259	57.025440	268.540283	43.555782	45.056755	226.045502	222.219681	55.327507	234.646133	-167.070587	491.993378	-18.874369	-197.941864	414.265747	31.219469	-255.134262	306.072937	-16.363157	-376.816956	79.655144	60.385418	-421.660645	83.022827	107.767975	-249.237000	39.695393	75.164848
268	2.67000000	-79.659187	1291.739380	358.248627	-54.486328	1305.079468	-22.957880	-122.787643	1366.424316	177.289871	19.001833	1243.828125	161.659485	-193.530273	1001.333435	420.328674	-101.196396	991.536255	-120.081696	-179.378899	771.282715	430.285934	44.069242	833.454712	-74.488234	-53.590302	856.138306	336.876282	-114.651741	844.226135	-11.564375	-217.555069	890.483887	238.990280	-228.751221	888.624451	147.640091	-223.153145	889.554169	193.315186	-209.921097	1120.639893	171.185532	51.866703	1053.184326	157.782516	32.615337	522.213745	351.096344	47.679607	436.544281	297.953979	79.174210	266.989105	358.536682	96.241936	56.668381	268.447540	44.418789	45.913170	226.340546	223.860809	51.584042	233.780212	-155.393814	492.199036	-17.538918	-186.342834	414.807434	32.058941	-246.351883	308.473969	-16.365740	-373.912140	84.802544	59.547531	-418.423981	89.919952	106.835037	-248.667496	39.541145	75.128571
269	2.68000000	-68.810616	1292.415527	360.002380	-44.309265	1305.655518	-21.317535	-112.125534	1367.359497	179.119247	29.518827	1244.679321	163.264816	-181.599869	1001.732056	422.360840	-93.162712	991.831543	-117.014618	-167.855446	771.784088	432.678940	50.669397	832.070587	-72.162041	-43.039497	857.953735	338.436066	-103.343025	844.472046	-9.869786	-206.873718	891.562866	240.419662	-218.159271	889.337769	148.991333	-212.516495	890.450317	194.705498	-199.353958	1121.577026	172.993423	62.741238	1054.382690	159.646530	45.045101	524.189392	350.898651	58.956490	437.738586	297.871155	88.760902	267.888275	358.670776	97.434036	56.414871	268.522339	45.077797	46.671871	226.750031	225.145523	48.690025	233.317383	-142.802490	492.464905	-16.242271	-173.481613	415.403412	32.777828	-236.414368	311.152130	-16.537119	-370.235809	90.684410	58.556183	-414.235046	97.829315	105.732880	-247.935852	39.438591	75.099411
270	2.69000000	-57.934845	1293.452271	361.745270	-34.117100	1306.515869	-19.629784	-101.469048	1368.531128	180.938766	40.033100	1245.764404	164.898010	-169.376633	1002.398132	424.443176	-85.345596	992.462219	-113.813431	-155.690453	772.538605	435.029404	56.634285	830.652130	-69.915125	-32.627441	859.917236	340.044373	-92.100494	845.009583	-8.125793	-196.215073	892.775208	241.825195	-207.642349	890.204834	150.340851	-201.928711	891.490021	196.083023	-188.832672	1122.754150	174.773285	73.500793	1055.844971	161.576309	57.199226	526.169922	350.963684	69.531342	438.773071	298.054321	97.147446	268.532379	359.216736	98.342850	56.227097	268.694855	45.580284	47.296829	227.223740	226.143509	46.597546	233.118958	-129.284851	492.728424	-15.039079	-159.335876	415.990204	33.329998	-225.226273	314.033142	-16.895950	-365.681030	97.278297	57.369190	-408.965668	106.701591	104.420387	-246.979507	39.447041	75.056061
271	2.70000000	-47.044155	1294.795044	363.474884	-23.965992	1307.615112	-17.890310	-90.874306	1369.862915	182.753510	50.510612	1247.032227	166.548264	-156.917023	1003.296936	426.586060	-77.716286	993.396851	-110.525192	-142.901947	773.503357	437.316299	61.998030	829.223175	-67.757797	-22.290098	861.880371	341.689941	-80.977043	845.799561	-6.327384	-185.572617	894.068970	243.246201	-197.202850	891.169189	151.728455	-191.387733	892.619080	197.487328	-178.369644	1124.100830	176.538467	84.112335	1057.478149	163.540100	68.600983	527.887085	351.342621	79.124016	439.548645	298.529358	103.827972	268.793243	360.102295	99.021461	56.077621	268.909363	45.961021	47.784302	227.712769	226.902527	45.187096	233.067459	-114.841721	492.923553	-13.977034	-143.938354	416.500702	33.678482	-212.723404	317.017334	-17.441303	-360.170837	104.506462	55.967442	-402.517761	116.404999	102.880318	-245.682358	39.660870	74.951790
272	2.71000000	-36.142265	1296.357056	365.192261	-13.911715	1308.893188	-16.101927	-80.384041	1371.277466	184.576859	60.915848	1248.421387	168.199478	-144.283630	1004.366455	428.800507	-70.255249	994.579956	-107.198776	-129.523769	774.614777	439.521606	66.811035	827.797058	-65.703674	-11.960663	863.733887	343.357300	-70.023224	846.778442	-4.476187	-174.948471	895.402771	244.715134	-186.843430	892.173828	153.181473	-180.895950	893.788300	198.948303	-167.978073	1125.541748	178.310211	94.556633	1059.191040	165.500168	78.805260	529.126221	352.062988	87.575562	440.017792	299.296509	108.601662	268.670013	361.240021	99.514969	55.948959	269.125397	46.250774	48.151501	228.173904	227.460876	44.307037	233.085648	-99.485741	492.996185	-13.090093	-127.389816	416.877899	33.802479	-198.903076	319.993256	-18.148146	-353.653625	112.233856	54.367676	-394.835205	126.715096	101.133232	-243.843246	40.211376	74.713188
